<?xml version="1.0" encoding="utf-8"?>
<svg version="1.0" id="rayds" xmlns="http://www.w3.org/2000/svg" xmlns:xlink="http://www.w3.org/1999/xlink" x="0px" y="0px"
	 width="619.5px" height="186.5px" viewBox="0 0 619.5 186.5" enable-background="new 0 0 619.5 186.5" xml:space="preserve">
<g>
	<g>
		
			<image overflow="visible" width="753" height="677" xlink:href="A6F05FA3.png"  transform="matrix(0.24 0 0 0.24 12.443 20.5788)">
		</image>
		<path fill-rule="evenodd" clip-rule="evenodd" fill="#476CB1" d="M137,31.4c0,0-58.7-36.5-87-25.3c-9,3.6-3.7,14.1-3.7,14.1
			S71.5,10.5,137,31.4z"/>
		<path fill-rule="evenodd" clip-rule="evenodd" fill="#FFFFFF" d="M169.4,65.9c2.9,0.5,5,2.8,4.7,5.2c-0.3,2.4-2.8,3.9-5.7,3.4
			c-2.9-0.5-5-2.8-4.7-5.2C163.9,66.9,166.5,65.4,169.4,65.9z"/>
		<g>
			<g>
				<path fill-rule="evenodd" clip-rule="evenodd" fill="#476CB1" d="M17.5,153.1c-14.7-2.3-18.5-23-5.9-27.2
					c6.2,1.9,4.8,7.6,9.2,10.4"/>
			</g>
		</g>
	</g>
	<g>
		<path fill="#333333" d="M264.8,109.1h-9.5l-17.5-22h-8.4v22H222V53.9h14.2c3.2,0,5.8,0.2,8,0.5c2.1,0.3,4.2,1.1,6.1,2.4
			c1.9,1.2,3.5,2.8,4.6,4.8c1.1,2,1.7,4.4,1.7,7.3c0,4.1-1,7.4-3.1,10.2c-2.1,2.7-4.8,4.7-8.4,6L264.8,109.1z M248.9,69.4
			c0-1.6-0.3-3-0.9-4.3c-0.6-1.2-1.4-2.3-2.6-3.1c-1-0.7-2.3-1.2-3.6-1.5c-1.4-0.3-3.1-0.4-5.2-0.4h-7.3V81h6.5c2.1,0,4-0.2,5.7-0.6
			c1.7-0.4,3.1-1.1,4.3-2.3c1.1-1,1.8-2.3,2.4-3.7C248.7,73,248.9,71.3,248.9,69.4z"/>
		<path fill="#333333" d="M291.8,104.7c-0.6,0.4-1.3,1-2.3,1.8c-1,0.8-1.9,1.4-2.8,1.8c-1.2,0.6-2.4,1.1-3.6,1.5
			c-1.1,0.3-2.8,0.5-4.8,0.5c-1.7,0-3.3-0.3-4.9-1s-2.9-1.5-4-2.7c-1.1-1.1-2-2.5-2.7-4.2c-0.7-1.7-1-3.4-1-5.3
			c0-2.9,0.6-5.3,1.8-7.3c1.2-2,3.1-3.6,5.7-4.8c2.3-1.1,5.1-1.8,8.2-2.2c3.2-0.4,6.6-0.7,10.2-0.9v-1.3c0-1.6-0.2-2.9-0.7-4
			s-1.2-1.8-2.1-2.3c-0.9-0.6-2-0.9-3.3-1.1s-2.6-0.3-4-0.3c-1.6,0-3.5,0.2-5.7,0.7c-2.2,0.5-4.4,1.2-6.5,2.1h-0.4v-7.1
			c1.3-0.4,3.1-0.8,5.5-1.2c2.4-0.4,4.8-0.7,7.1-0.7c2.8,0,5.2,0.2,7.2,0.7c2,0.4,3.7,1.2,5.3,2.4c1.5,1.1,2.6,2.6,3.4,4.4
			c0.7,1.8,1.1,4,1.1,6.6v28.3h-6.9V104.7z M291.8,98.9V87.4c-1.7,0.1-3.8,0.4-6.3,0.6c-2.5,0.3-4.6,0.6-6.1,1.1
			c-1.9,0.6-3.4,1.4-4.6,2.6c-1.2,1.2-1.8,2.8-1.8,4.9c0,2.4,0.7,4.2,2,5.4c1.3,1.2,3.3,1.8,5.9,1.8c2.2,0,4.2-0.5,6-1.4
			S290.2,100.3,291.8,98.9z"/>
		<path fill="#333333" d="M341.1,67.7l-22.3,56.7h-7.5l7.4-17.3l-15.1-39.4h7.5l11.3,30.7l11.3-30.7H341.1z"/>
		<path fill="#333333" d="M378.2,109.1h-7v-4.2c-1.1,0.9-2,1.7-2.8,2.3s-1.7,1.1-2.8,1.6c-1,0.5-2,0.8-3.1,1.1
			c-1.1,0.3-2.3,0.4-3.7,0.4c-2.3,0-4.3-0.5-6.3-1.4c-1.9-0.9-3.5-2.3-4.9-4.1c-1.4-1.8-2.4-4.1-3.2-6.8c-0.7-2.7-1.1-5.8-1.1-9.3
			c0-3.6,0.5-6.8,1.4-9.4c0.9-2.7,2.2-5,3.9-7c1.5-1.8,3.3-3.2,5.5-4.2c2.1-1,4.4-1.5,6.7-1.5c2.1,0,3.9,0.2,5.4,0.7
			c1.5,0.5,3.2,1.2,4.9,2.1v-18h7V109.1z M371.2,99V75.1c-1.7-0.8-3.3-1.4-4.7-1.7c-1.4-0.3-2.9-0.5-4.5-0.5c-3.6,0-6.4,1.3-8.4,4
			c-2,2.7-3,6.6-3,11.6c0,4.9,0.8,8.6,2.3,11.2s4.1,3.9,7.5,3.9c1.8,0,3.7-0.4,5.5-1.2S369.6,100.4,371.2,99z"/>
		<path fill="#333333" d="M399.5,110.1c-2.8,0-5.4-0.4-7.8-1.1c-2.4-0.7-4.4-1.5-6-2.4v-7.8h0.4c0.6,0.5,1.3,1,2.1,1.6
			s1.9,1.2,3.2,1.8c1.2,0.5,2.5,1,3.9,1.4c1.4,0.4,2.9,0.6,4.4,0.6c1.1,0,2.3-0.1,3.6-0.4c1.3-0.3,2.2-0.6,2.8-1
			c0.9-0.6,1.5-1.2,1.9-1.8c0.4-0.6,0.6-1.6,0.6-2.9c0-1.7-0.5-2.9-1.4-3.7s-2.5-1.5-4.8-2.1c-0.9-0.2-2.1-0.5-3.5-0.8
			c-1.4-0.3-2.8-0.6-4-1c-3.2-0.9-5.5-2.3-6.9-4.2c-1.4-1.9-2.2-4.2-2.2-7c0-3.7,1.4-6.8,4.2-9.1c2.8-2.3,6.6-3.5,11.2-3.5
			c2.3,0,4.6,0.3,6.9,0.9c2.3,0.6,4.3,1.3,5.9,2.2v7.5h-0.4c-1.8-1.4-3.8-2.5-6-3.3s-4.4-1.2-6.6-1.2c-2.3,0-4.2,0.5-5.8,1.4
			c-1.6,1-2.4,2.4-2.4,4.4c0,1.7,0.5,3,1.4,3.9c0.9,0.9,2.4,1.6,4.5,2.1c1,0.3,2.2,0.5,3.5,0.8c1.3,0.3,2.6,0.6,4,0.9
			c3.1,0.8,5.4,2,6.9,3.8c1.5,1.8,2.3,4.2,2.3,7.3c0,1.8-0.4,3.5-1.1,5.1s-1.7,3-3.1,4.1c-1.5,1.2-3.2,2.2-5,2.8
			S402.3,110.1,399.5,110.1z"/>
		<path fill="#333333" d="M433.1,109.1h-8.9V98.5h8.9V109.1z"/>
		<path fill="#333333" d="M461.7,110c-2.8,0-5.5-0.4-7.8-1.3c-2.4-0.9-4.4-2.2-6.1-4s-3-4-4-6.7s-1.4-5.9-1.4-9.6
			c0-3.6,0.5-6.8,1.5-9.4c1-2.6,2.3-4.9,3.9-6.7c1.6-1.8,3.7-3.2,6.1-4.2c2.4-1,5-1.5,7.8-1.5c2.3,0,4.5,0.3,6.6,1s4,1.4,5.7,2.2
			v7.8h-0.4c-0.5-0.4-1.1-0.9-1.9-1.4c-0.8-0.5-1.7-1.1-2.8-1.7c-1-0.5-2.1-0.9-3.4-1.3c-1.3-0.4-2.6-0.6-3.8-0.6
			c-3.6,0-6.5,1.4-8.7,4.1c-2.2,2.7-3.3,6.6-3.3,11.6c0,4.9,1.1,8.7,3.2,11.4s5,4.1,8.8,4.1c2.3,0,4.4-0.5,6.5-1.4
			c2.1-0.9,3.9-2.2,5.5-3.6h0.4v7.8c-0.7,0.3-1.6,0.7-2.6,1.2c-1,0.5-2,0.8-2.8,1c-1.2,0.3-2.3,0.6-3.2,0.8S463.2,110,461.7,110z"/>
		<path fill="#333333" d="M514.3,88.4c0,7-1.7,12.4-5,16.2c-3.4,3.8-7.8,5.7-13.4,5.7c-5.8,0-10.3-2-13.6-5.9s-5-9.2-5-16
			c0-6.9,1.7-12.3,5.1-16.1c3.4-3.8,7.9-5.7,13.4-5.7c5.6,0,10.1,1.9,13.4,5.7C512.7,76.1,514.3,81.5,514.3,88.4z M507.1,88.4
			c0-5.4-1-9.4-2.9-12c-2-2.6-4.7-3.9-8.3-3.9c-3.6,0-6.4,1.3-8.4,3.9c-2,2.6-2.9,6.6-2.9,12c0,5.2,1,9.1,2.9,11.8s4.8,4,8.4,4
			c3.6,0,6.4-1.3,8.3-4C506.2,97.7,507.1,93.7,507.1,88.4z"/>
		<path fill="#333333" d="M568.5,109.1v-24c0-1.9-0.1-3.7-0.2-5.3c-0.1-1.6-0.5-2.9-0.9-3.8c-0.5-1-1.2-1.7-2.1-2.2
			c-0.9-0.5-2.2-0.7-3.7-0.7c-1.4,0-3,0.4-4.6,1.3c-1.6,0.9-3.3,2.1-5.1,3.8c0,0.4,0.1,0.9,0.1,1.5s0.1,1.3,0.1,2.1v27.3h-7v-24
			c0-1.9-0.1-3.7-0.2-5.3c-0.1-1.6-0.5-2.9-0.9-3.8c-0.5-1-1.2-1.7-2.1-2.2c-0.9-0.5-2.2-0.7-3.7-0.7c-1.5,0-3.1,0.5-4.7,1.4
			c-1.7,0.9-3.3,2.1-4.8,3.6v30.9h-7V67.7h7v4.6c1.8-1.8,3.6-3.2,5.4-4.2c1.8-1,3.8-1.5,5.9-1.5c2.4,0,4.6,0.6,6.5,1.7
			s3.3,2.9,4.3,5.5c2.1-2.3,4.2-4.1,6.2-5.3c2-1.2,4.2-1.8,6.5-1.8c1.8,0,3.4,0.3,4.9,0.8s2.7,1.5,3.8,2.7c1.1,1.3,2,2.8,2.6,4.7
			c0.6,1.9,0.9,4.2,0.9,7.1v27.3H568.5z"/>
	</g>
	<g>
		<path fill="#333333" d="M222,139.5v-8.7h3.9c0.8,0,1.4,0.1,1.8,0.2c0.4,0.2,0.7,0.4,1,0.8c0.2,0.4,0.4,0.8,0.4,1.3
			c0,0.6-0.2,1.1-0.6,1.6c-0.4,0.4-1,0.7-1.9,0.8c0.3,0.1,0.5,0.3,0.7,0.4c0.3,0.3,0.7,0.7,1,1.2l1.5,2.4h-1.4l-1.2-1.8
			c-0.3-0.5-0.6-0.9-0.8-1.2c-0.2-0.3-0.4-0.5-0.6-0.6c-0.2-0.1-0.3-0.2-0.5-0.2c-0.1,0-0.3,0-0.6,0h-1.3v3.9H222z M223.2,134.6h2.5
			c0.5,0,0.9-0.1,1.2-0.2c0.3-0.1,0.5-0.3,0.7-0.5s0.2-0.5,0.2-0.8c0-0.4-0.1-0.8-0.4-1c-0.3-0.3-0.8-0.4-1.4-0.4h-2.8V134.6z"/>
		<path fill="#333333" d="M240,139.5v-8.7h1.2v8.7H240z"/>
		<path fill="#333333" d="M256.2,136.1v-1l3.7,0v3.2c-0.6,0.5-1.1,0.8-1.8,1c-0.6,0.2-1.2,0.3-1.9,0.3c-0.9,0-1.6-0.2-2.3-0.5
			c-0.7-0.4-1.2-0.9-1.6-1.6c-0.4-0.7-0.5-1.5-0.5-2.3c0-0.8,0.2-1.6,0.5-2.4c0.4-0.7,0.9-1.3,1.5-1.6c0.7-0.4,1.4-0.5,2.3-0.5
			c0.6,0,1.2,0.1,1.7,0.3c0.5,0.2,0.9,0.5,1.2,0.9c0.3,0.4,0.5,0.8,0.7,1.4l-1,0.3c-0.1-0.4-0.3-0.8-0.5-1s-0.5-0.5-0.8-0.6
			c-0.4-0.2-0.8-0.2-1.2-0.2c-0.5,0-1,0.1-1.4,0.2s-0.7,0.4-0.9,0.6c-0.2,0.3-0.4,0.5-0.5,0.9c-0.2,0.5-0.3,1.1-0.3,1.8
			c0,0.8,0.1,1.4,0.4,1.9c0.3,0.5,0.7,0.9,1.2,1.2c0.5,0.3,1.1,0.4,1.6,0.4c0.5,0,1-0.1,1.5-0.3c0.5-0.2,0.8-0.4,1.1-0.6v-1.6H256.2
			z"/>
		<path fill="#333333" d="M270.6,139.5v-8.7h1.2v3.6h4.5v-3.6h1.2v8.7h-1.2v-4.1h-4.5v4.1H270.6z"/>
		<path fill="#333333" d="M290.6,139.5v-7.7h-2.9v-1h6.9v1h-2.9v7.7H290.6z"/>
		<path fill="#333333" d="M316.2,139.5l3.3-8.7h1.2l3.6,8.7H323l-1-2.6h-3.6l-1,2.6H316.2z M318.7,135.9h2.9l-0.9-2.4
			c-0.3-0.7-0.5-1.3-0.6-1.8c-0.1,0.6-0.3,1.1-0.5,1.7L318.7,135.9z"/>
		<path fill="#333333" d="M336.5,139.5v-7.7h-2.9v-1h6.9v1h-2.9v7.7H336.5z"/>
		<path fill="#333333" d="M365.5,139.5v-3.7l-3.4-5h1.4l1.7,2.6c0.3,0.5,0.6,1,0.9,1.5c0.3-0.5,0.6-1,1-1.5l1.7-2.6h1.3l-3.5,5v3.7
			H365.5z"/>
		<path fill="#333333" d="M379.8,135.3c0-1.4,0.4-2.6,1.2-3.4c0.8-0.8,1.8-1.2,3-1.2c0.8,0,1.5,0.2,2.2,0.6c0.6,0.4,1.1,0.9,1.5,1.6
			c0.3,0.7,0.5,1.5,0.5,2.3c0,0.9-0.2,1.7-0.5,2.4c-0.4,0.7-0.9,1.2-1.5,1.6c-0.7,0.4-1.4,0.5-2.1,0.5c-0.8,0-1.6-0.2-2.2-0.6
			s-1.1-0.9-1.5-1.6S379.8,136,379.8,135.3z M381,135.3c0,1,0.3,1.9,0.8,2.5c0.6,0.6,1.3,0.9,2.1,0.9c0.9,0,1.6-0.3,2.1-0.9
			c0.6-0.6,0.8-1.5,0.8-2.6c0-0.7-0.1-1.3-0.4-1.9s-0.6-0.9-1-1.2s-1-0.4-1.6-0.4c-0.8,0-1.5,0.3-2.1,0.8
			C381.3,133,381,134,381,135.3z"/>
		<path fill="#333333" d="M404.3,130.8h1.2v5c0,0.9-0.1,1.6-0.3,2.1c-0.2,0.5-0.6,0.9-1.1,1.3c-0.5,0.3-1.2,0.5-2,0.5
			c-0.8,0-1.5-0.1-2-0.4c-0.5-0.3-0.9-0.7-1.1-1.2s-0.3-1.3-0.3-2.2v-5h1.2v5c0,0.8,0.1,1.3,0.2,1.7s0.4,0.6,0.7,0.8
			c0.3,0.2,0.8,0.3,1.3,0.3c0.8,0,1.4-0.2,1.8-0.6s0.5-1.1,0.5-2.2V130.8z"/>
		<path fill="#333333" d="M416.4,139.5v-8.7h3.9c0.8,0,1.4,0.1,1.8,0.2c0.4,0.2,0.7,0.4,1,0.8s0.4,0.8,0.4,1.3
			c0,0.6-0.2,1.1-0.6,1.6c-0.4,0.4-1,0.7-1.9,0.8c0.3,0.1,0.5,0.3,0.7,0.4c0.3,0.3,0.7,0.7,1,1.2l1.5,2.4h-1.4l-1.2-1.8
			c-0.3-0.5-0.6-0.9-0.8-1.2c-0.2-0.3-0.4-0.5-0.6-0.6c-0.2-0.1-0.3-0.2-0.5-0.2c-0.1,0-0.3,0-0.6,0h-1.3v3.9H416.4z M417.5,134.6
			h2.5c0.5,0,0.9-0.1,1.2-0.2s0.5-0.3,0.7-0.5s0.2-0.5,0.2-0.8c0-0.4-0.1-0.8-0.4-1s-0.8-0.4-1.4-0.4h-2.8V134.6z"/>
		<path fill="#333333" d="M446.5,139.5v-8.7h3c0.7,0,1.2,0,1.5,0.1c0.5,0.1,0.9,0.3,1.3,0.6c0.5,0.4,0.8,0.9,1,1.5
			c0.2,0.6,0.3,1.3,0.3,2.1c0,0.7-0.1,1.2-0.2,1.8c-0.2,0.5-0.4,0.9-0.6,1.3c-0.2,0.3-0.5,0.6-0.8,0.8c-0.3,0.2-0.6,0.3-1,0.4
			s-0.9,0.1-1.4,0.1H446.5z M447.7,138.5h1.9c0.6,0,1-0.1,1.4-0.2c0.3-0.1,0.6-0.3,0.8-0.5c0.3-0.3,0.5-0.6,0.6-1.1s0.2-1,0.2-1.7
			c0-0.9-0.1-1.6-0.4-2.1c-0.3-0.5-0.7-0.8-1.1-1c-0.3-0.1-0.8-0.2-1.5-0.2h-1.8V138.5z"/>
		<path fill="#333333" d="M463.9,135.3c0-1.4,0.4-2.6,1.2-3.4c0.8-0.8,1.8-1.2,3-1.2c0.8,0,1.5,0.2,2.2,0.6c0.6,0.4,1.1,0.9,1.5,1.6
			c0.3,0.7,0.5,1.5,0.5,2.3c0,0.9-0.2,1.7-0.5,2.4c-0.4,0.7-0.9,1.2-1.5,1.6c-0.7,0.4-1.4,0.5-2.1,0.5c-0.8,0-1.6-0.2-2.2-0.6
			s-1.1-0.9-1.5-1.6S463.9,136,463.9,135.3z M465.1,135.3c0,1,0.3,1.9,0.8,2.5c0.6,0.6,1.3,0.9,2.1,0.9c0.9,0,1.6-0.3,2.1-0.9
			c0.6-0.6,0.8-1.5,0.8-2.6c0-0.7-0.1-1.3-0.4-1.9s-0.6-0.9-1-1.2s-1-0.4-1.6-0.4c-0.8,0-1.5,0.3-2.1,0.8
			C465.4,133,465.1,134,465.1,135.3z"/>
		<path fill="#333333" d="M482.4,135.3c0-1.4,0.4-2.6,1.2-3.4c0.8-0.8,1.8-1.2,3-1.2c0.8,0,1.5,0.2,2.2,0.6c0.6,0.4,1.1,0.9,1.5,1.6
			c0.3,0.7,0.5,1.5,0.5,2.3c0,0.9-0.2,1.7-0.5,2.4c-0.4,0.7-0.9,1.2-1.5,1.6c-0.7,0.4-1.4,0.5-2.1,0.5c-0.8,0-1.6-0.2-2.2-0.6
			s-1.1-0.9-1.5-1.6S482.4,136,482.4,135.3z M483.6,135.3c0,1,0.3,1.9,0.8,2.5c0.6,0.6,1.3,0.9,2.1,0.9c0.9,0,1.6-0.3,2.1-0.9
			c0.6-0.6,0.8-1.5,0.8-2.6c0-0.7-0.1-1.3-0.4-1.9s-0.6-0.9-1-1.2s-1-0.4-1.6-0.4c-0.8,0-1.5,0.3-2.1,0.8
			C483.9,133,483.6,134,483.6,135.3z"/>
		<path fill="#333333" d="M501.2,139.5v-8.7h3.9c0.8,0,1.4,0.1,1.8,0.2c0.4,0.2,0.7,0.4,1,0.8s0.4,0.8,0.4,1.3
			c0,0.6-0.2,1.1-0.6,1.6c-0.4,0.4-1,0.7-1.9,0.8c0.3,0.1,0.5,0.3,0.7,0.4c0.3,0.3,0.7,0.7,1,1.2l1.5,2.4h-1.4l-1.2-1.8
			c-0.3-0.5-0.6-0.9-0.8-1.2c-0.2-0.3-0.4-0.5-0.6-0.6c-0.2-0.1-0.3-0.2-0.5-0.2c-0.1,0-0.3,0-0.6,0h-1.3v3.9H501.2z M502.3,134.6
			h2.5c0.5,0,0.9-0.1,1.2-0.2s0.5-0.3,0.7-0.5s0.2-0.5,0.2-0.8c0-0.4-0.1-0.8-0.4-1s-0.8-0.4-1.4-0.4h-2.8V134.6z"/>
		<path fill="#333333" d="M518.6,136.7l1.1-0.1c0.1,0.4,0.2,0.8,0.4,1.1c0.2,0.3,0.5,0.5,0.9,0.7s0.8,0.3,1.3,0.3
			c0.4,0,0.8-0.1,1.2-0.2c0.3-0.1,0.6-0.3,0.8-0.5s0.2-0.5,0.2-0.7c0-0.3-0.1-0.5-0.2-0.7c-0.2-0.2-0.4-0.4-0.8-0.5
			c-0.2-0.1-0.8-0.2-1.5-0.4c-0.8-0.2-1.4-0.4-1.7-0.5c-0.4-0.2-0.7-0.5-0.9-0.8c-0.2-0.3-0.3-0.7-0.3-1.1c0-0.4,0.1-0.8,0.4-1.2
			s0.6-0.7,1.1-0.9c0.5-0.2,1-0.3,1.6-0.3c0.6,0,1.2,0.1,1.7,0.3c0.5,0.2,0.9,0.5,1.1,0.9c0.3,0.4,0.4,0.9,0.4,1.4l-1.1,0.1
			c-0.1-0.5-0.3-1-0.6-1.2c-0.3-0.3-0.8-0.4-1.5-0.4c-0.7,0-1.2,0.1-1.5,0.4c-0.3,0.3-0.5,0.6-0.5,0.9c0,0.3,0.1,0.6,0.3,0.8
			c0.2,0.2,0.8,0.4,1.7,0.6c0.9,0.2,1.6,0.4,1.9,0.6c0.5,0.2,0.9,0.5,1.1,0.9c0.2,0.4,0.4,0.8,0.4,1.2c0,0.5-0.1,0.9-0.4,1.3
			c-0.3,0.4-0.6,0.7-1.1,1c-0.5,0.2-1.1,0.3-1.7,0.3c-0.8,0-1.4-0.1-2-0.3c-0.5-0.2-0.9-0.6-1.3-1S518.6,137.3,518.6,136.7z"/>
		<path fill="#333333" d="M538.3,139.5v-7.7h-2.9v-1h6.9v1h-2.9v7.7H538.3z"/>
		<path fill="#333333" d="M552.5,139.5v-8.7h6.3v1h-5.1v2.7h4.8v1h-4.8v3h5.3v1H552.5z"/>
		<path fill="#333333" d="M569.6,139.5v-8.7h3.3c0.6,0,1,0,1.3,0.1c0.4,0.1,0.8,0.2,1.1,0.4c0.3,0.2,0.5,0.5,0.7,0.8
			c0.2,0.4,0.3,0.8,0.3,1.2c0,0.7-0.2,1.4-0.7,1.9c-0.5,0.5-1.3,0.8-2.6,0.8h-2.2v3.5H569.6z M570.7,134.9h2.2
			c0.7,0,1.3-0.1,1.6-0.4c0.3-0.3,0.5-0.7,0.5-1.2c0-0.4-0.1-0.7-0.3-0.9c-0.2-0.3-0.4-0.4-0.7-0.5c-0.2-0.1-0.6-0.1-1.1-0.1h-2.2
			V134.9z"/>
	</g>
</g>
</svg>
